<svg xmlns="http://www.w3.org/2000/svg" width="512" height="512"><path d="M294.5 2.534c-24.104 2.418-45.329 6.669-57.753 11.566-3.747 1.477-6.376 1.883-9.328 1.44-3.41-.511-8.712.835-31.143 7.91C154.767 36.541 155 36.432 155 42.663c0 3.011-.432 3.463-5.25 5.49-22.689 9.547-53.587 29.372-76.571 49.129-7.824 6.726-9.23 8.377-8.753 10.28.477 1.899-.444 2.99-5.679 6.731-3.436 2.456-8.621 6.98-11.524 10.054-6.13 6.494-6.566 3.572 3.79 25.403L57.298 163l4.101-.009c2.256-.005 9.051-1.136 15.101-2.512l11-2.503 2.5 3.021c2.277 2.752 3.035 3.02 8.5 3.008 12.11-.027 54.003-10.465 75.977-18.932 4.388-1.69 8.501-3.073 9.142-3.073 1.491 0 4.746 8.037 3.682 9.093-.44.438-14.526 6.848-31.301 14.244-68.957 30.405-72.151 32.073-79.63 41.596-5.317 6.771-7.734 13.581-7.672 21.619.055 6.978-4.076-3.343 42.88 107.144 35.212 82.855 54.824 128.217 58.973 136.405 4.134 8.158 11.339 15.089 19.708 18.96 6.154 2.847 8.625 3.411 16.461 3.762 5.072.227 11.207.115 13.635-.249 4.429-.664 42.238-21.103 152.846-82.626 63.78-35.477 86.651-48.791 91.549-53.295 2.345-2.156 5.707-6.868 7.5-10.511 3.03-6.156 3.246-7.283 3.194-16.623-.047-8.348-.474-11.02-2.562-16.019-4.371-10.466-123.961-192.049-132.989-201.927-9.248-10.118-23.208-14.601-36.557-11.739-2.763.593-12.181 4.22-20.93 8.06l-15.906 6.981-.632-2.687c-1.314-5.591-1.241-5.666 12.382-12.767 26.85-13.996 50.549-29.345 59.911-38.804 6.05-6.111 7.286-10.248 6.461-21.617-1.268-17.489-6.865-30.542-15.903-37.089-3.739-2.708-4.619-2.903-12.619-2.796-4.73.063-14.45.702-21.6 1.419M162.791 41.25c5.722 4.91 8.541 8.234 13.023 15.358 13.284 21.12 30.808 80.172 50.772 171.091 3.767 17.159 7.008 31.041 7.2 30.848 1.981-1.98-20.094-98.667-32.377-141.811-1.71-6.004-2.42-10.105-1.845-10.649.515-.486 14.098-6.157 30.186-12.602 16.088-6.446 29.249-12.229 29.248-12.852-.003-2.941-6.395-24.509-8.796-29.683l-2.702-5.823-31 12.46c-23.258 9.349-31.193 12.143-31.773 11.187-.424-.701-3.124-5.292-6-10.203C173.046 48.867 162.551 37 159.65 37c-1.258 0-.297 1.301 3.141 4.25m-115.979 86.5c-2.913 3.126-3.009 2.619 2.873 15.03 3.828 8.077 4.585 9.093 5.838 7.84.792-.793 3.586-2.229 6.209-3.192 9.655-3.548 11.268-4.353 11.259-5.627-.006-.716-1.391-3.709-3.079-6.653-3.389-5.911-3.267-5.882-13.167-3.077-4.243 1.201-4.936 1.166-6.428-.325-1.376-1.376-1.467-2.121-.516-4.209 1.512-3.319.216-3.226-2.989.213m246.938 2.822c-1.512.821-2.75 1.703-2.75 1.96 0 1.047 1.916.353 4.139-1.499 2.814-2.344 2.36-2.495-1.389-.461m4.75-.572c-.34.55.057 1 .882 1s1.778-.45 2.118-1c.34-.55-.057-1-.882-1s-1.778.45-2.118 1m5 0c-.34.55.282 1 1.382 1 1.1 0 2.278-.45 2.618-1 .34-.55-.282-1-1.382-1-1.1 0-2.278.45-2.618 1m6.016-.025c-.808 1.307 1.493 2.416 2.638 1.271.64-.64.448-1.185-.555-1.57-.844-.324-1.782-.189-2.083.299m4.049 1.92c-.305.493.104 1.148.909 1.457 1.562.599 2.897-.648 1.832-1.713-.904-.904-2.093-.793-2.741.256m-28.704 3.154l-2.361 2.05 3.25-1.575c3.198-1.55 4.109-2.524 2.361-2.524-.489 0-1.952.922-3.25 2.049m33.139-.108c0 .518.45 1.219 1 1.559.55.34 1-.084 1-.941s-.45-1.559-1-1.559-1 .423-1 .941m-40.75 3.279c-1.238.597-2.25 1.478-2.25 1.958 0 .481 1.35.175 3-.678 4.522-2.339 3.844-3.495-.75-1.28m43.765-.529c.009.445.452 1.484.985 2.309.835 1.293.971 1.266.985-.191.008-.93-.435-1.969-.985-2.309-.55-.34-.993-.254-.985.191m-49.986 3.27c-.809.512-1.211 1.191-.893 1.509.319.318 1.148-.108 1.844-.946 1.443-1.738 1.166-1.902-.951-.563M324 142.382c0 .825.45 1.778 1 2.118.55.34 1-.057 1-.882s-.45-1.778-1-2.118c-.55-.34-1 .057-1 .882m3 5c0 .825.45 1.778 1 2.118.55.34 1-.057 1-.882s-.45-1.778-1-2.118c-.55-.34-1 .057-1 .882m-29.5.333c-1.1.265-7.283 2.739-13.741 5.496-10.383 4.434-11.688 5.26-11.286 7.151.25 1.176 1.395 8.582 2.544 16.459 3.026 20.738 6.762 39.424 8.038 40.213.609.376 3.545 1.23 6.526 1.897 2.98.667 5.419 1.536 5.419 1.932 0 .396-2.423 1.909-5.384 3.361l-5.383 2.64 2.596 10.568c1.89 7.692 3.015 10.572 4.134 10.583 1.357.014 1.362.129.037.985-.825.533-1.024.976-.441.985.582.008 1.932-.667 3-1.499 1.067-.833 1.491-1.455.941-1.382-2.331.31-4.962-.277-3.625-.808 2.604-1.034 5.125-4.301 5.125-6.641 0-1.29.825-3.092 1.833-4.004 1.564-1.415 1.834-1.438 1.834-.155 0 .827-.6 1.504-1.334 1.504-.733 0-1.333.675-1.333 1.5s.477 1.5 1.059 1.5.81-.403.506-.895c-.305-.493.147-1.164 1.004-1.493.857-.329 1.309-1 1.005-1.492-.303-.491.118-1.449.937-2.129 2.14-1.776 1.835-2.987-.761-3.018-2.055-.025-1.927-.328 1.485-3.5 3.478-3.233 6.662-4.734 5.272-2.484-.36.583.079.723 1.071.343 1.371-.527 1.116-.94-1.382-2.239-2.487-1.293-2.879-1.923-2.08-3.343.541-.963 1.524-1.743 2.184-1.735.734.01.618.392-.3.985-1.09.704-1.142.974-.191.985.769.009 1.007.531.578 1.265-.402.688.288.355 1.534-.739 2.526-2.218 5.032-6.218 3.179-5.073-1.724 1.066-1.287-1.557.643-3.859 1.733-2.068 1.729-2.067-.75.022-4.46 3.76-5.575 3.786-2.047.049 3.832-4.059 6.148-4.737 5.549-1.623-.218 1.128.037 1.762.574 1.431.53-.328.705-1.015.388-1.527-.316-.512.239-.947 1.234-.966 1.47-.029 1.362-.283-.576-1.358-1.567-.868-1.99-1.566-1.234-2.034.633-.391.85-1.2.481-1.797-.375-.605-.211-.801.37-.442.573.354 1.626-.06 2.34-.921 1.306-1.573.656-2.523-2.572-3.765-1.336-.514 4.481-6.648 6.304-6.648.937 0 1.249.689.907 1.999-.619 2.363.82 3.665 1.653 1.495.794-2.068-.289-4.494-2.006-4.494-.785 0 .163-1.397 2.107-3.104 3.859-3.388 4.332-4.99 2.035-6.896-1.036-.86-1.5-.898-1.5-.122 0 .617-.46 1.122-1.023 1.122s-.346-1.033.481-2.296c1.384-2.111 1.309-2.582-.931-5.879-1.339-1.971-2.156-3.863-1.814-4.204.341-.342.02-.621-.713-.621s-1.058-.275-.722-.612c.671-.67-6.405-12.534-9.637-16.156-1.113-1.248-4.269-2.935-7.014-3.75-2.744-.815-5.021-1.43-5.059-1.366-.037.064-.968.333-2.068.599m32.515 3.476c-.008.93.435 1.969.985 2.309 1.266.782 1.266-.542 0-2.5-.835-1.293-.971-1.266-.985.191m2.985 5.25c0 .857.45 1.559 1 1.559s1-.423 1-.941-.45-1.219-1-1.559c-.55-.34-1 .084-1 .941m2.636 5.053c.316.822.984 1.241 1.485.931 1.049-.648.207-2.425-1.149-2.425-.5 0-.651.672-.336 1.494m2.593 3.694c.218.653.931 1.365 1.584 1.583.731.244.954-.214.581-1.187-.698-1.818-2.765-2.196-2.165-.396m3.409 5.312c.317.825.753 1.5.969 1.5.216 0 .393-.675.393-1.5s-.436-1.5-.969-1.5c-.532 0-.709.675-.393 1.5m2.998 4.994c.316.822.984 1.241 1.485.931 1.049-.648.207-2.425-1.149-2.425-.5 0-.651.672-.336 1.494m2.593 3.694c.218.653.931 1.365 1.584 1.583.731.244.954-.214.581-1.187-.698-1.818-2.765-2.196-2.165-.396m3.409 5.312c.317.825.753 1.5.969 1.5.216 0 .393-.675.393-1.5s-.436-1.5-.969-1.5c-.532 0-.709.675-.393 1.5M330 185c0 .55.477 1 1.059 1s.781-.45.441-1-.816-1-1.059-1-.441.45-.441 1m23.015 2.191c-.008.93.435 1.969.985 2.309 1.266.782 1.266-.542 0-2.5-.835-1.293-.971-1.266-.985.191m-190.041 3.968c-19.549 9.331-46.581 22.896-47.974 24.073-.825.698-2.158 2.168-2.962 3.268-1.001 1.37-.528 1.185 1.5-.586 2.37-2.069 23.346-12.914 24.978-12.914.23 0 5.045-2.208 10.701-4.906 5.656-2.699 12.813-6.024 15.905-7.389 5.131-2.265 7.673-4.243 6.702-5.215-.207-.207-4.19 1.444-8.85 3.669M356 192.441c0 .857.45 1.559 1 1.559s1-.423 1-.941-.45-1.219-1-1.559c-.55-.34-1 .084-1 .941m2.543 3.49c-.317.512-.118 1.213.441 1.559.559.345 1.016-.074 1.016-.931 0-1.757-.6-2.015-1.457-.628m-38.849 1.708c-.799.799.104 2.361 1.365 2.361.518 0 .941-.675.941-1.5 0-1.546-1.18-1.987-2.306-.861m41.321 2.052c.009.445.452 1.484.985 2.309.835 1.293.971 1.266.985-.191.008-.93-.435-1.969-.985-2.309-.55-.34-.993-.254-.985.191M154.329 210.82c-24.785 11.332-30.496 14.819-34.517 21.076-4.952 7.703-4.238 10.74 10.673 45.417 8.442 19.63 13.104 29.364 13.652 28.5.58-.915.837-.599.848 1.044.011 1.763.425 2.2 1.642 1.733.894-.344 2.156-.185 2.802.351.783.65 2.129.482 4.022-.5 1.566-.812 3.076-1.248 3.356-.968.28.281 1.113.008 1.851-.604.828-.688 1.342-.729 1.342-.108 0 1.285 4.872 2.254 5.58 1.11.292-.473 1.396-1.323 2.453-1.889 1.554-.831 1.81-.736 1.338.495-.322.838-.124 1.523.439 1.523s1.25-.562 1.528-1.25c.277-.687.547-.35.598.75.053 1.107.423 1.554.829 1 1.642-2.235 4.074-3.499 5.603-2.912.891.342 1.313 1.119.937 1.727-.375.608 1.003.111 3.063-1.105 3.539-2.088 7.862-3.275 4.75-1.304-1.086.687-.924 1.021.753 1.553 1.364.433 2.701.112 3.703-.891 1.839-1.838 3.593-2.001 5.119-.475.79.79 1.657.79 3.134 0 2.55-1.365 4.49-1.416 3.675-.096-.404.654.228.676 1.838.064 1.35-.513 2.715-.673 3.034-.354.318.319.877-.198 1.242-1.148.524-1.365.836-1.448 1.493-.393.689 1.108 1.191 1.11 2.965.01 1.174-.728 1.837-.84 1.472-.25-.365.591-.214 1.074.336 1.074s1.308-.498 1.684-1.107c.477-.771.944-.696 1.544.25.473.746.866.883.875.303.008-.58 2.378-1.143 5.265-1.252 6.248-.234 13.699-1.07 15.653-1.756 1.173-.412 1.152-.694-.129-1.716-.843-.672-5.877-9.723-11.186-20.113-8.022-15.699-10.952-20.957-14.179-25.44-.131-.182-6.401 2.43-13.934 5.806-7.533 3.376-13.894 5.94-14.136 5.698-.241-.242 2.509-7.791 6.111-16.776 3.603-8.985 6.55-16.741 6.55-17.236 0-1.116-13.909-18.344-20-24.772l-4.5-4.749-21.171 9.68m209.686-6.629c-.008.93.435 1.969.985 2.309 1.266.782 1.266-.542 0-2.5-.835-1.293-.971-1.266-.985.191M367 209.5c0 .825.436 1.5.969 1.5.532 0 .709-.675.393-1.5-.317-.825-.753-1.5-.969-1.5-.216 0-.393.675-.393 1.5m2.5 4.5c.34.55 1.068 1 1.618 1s.722-.45.382-1c-.34-.55-1.068-1-1.618-1s-.722.45-.382 1m2.5 3.941c0 .518.45 1.219 1 1.559.55.34 1-.084 1-.941s-.45-1.559-1-1.559-1 .423-1 .941m3.015 3.75c.009.445.452 1.484.985 2.309.835 1.293.971 1.266.985-.191.008-.93-.435-1.969-.985-2.309-.55-.34-.993-.254-.985.191m3 4.5c-.008.93.435 1.969.985 2.309 1.266.782 1.266-.542 0-2.5-.835-1.293-.971-1.266-.985.191m2.985 5.25c0 .857.45 1.559 1 1.559s1-.423 1-.941-.45-1.219-1-1.559c-.55-.34-1 .084-1 .941m-309.488 2.927c.343 2.127 1.757 6.402 3.144 9.5l4.312 9.632c.985 2.2 2.123 4.9 2.528 6 .517 1.404.886 1.598 1.237.651.275-.741-.005-2.316-.622-3.5-.617-1.183-3.394-7.551-6.172-14.151-3.227-7.67-4.824-10.604-4.427-8.132M297 232.969c0 .532.675.709 1.5.393.825-.317 1.5-.753 1.5-.969 0-.216-.675-.393-1.5-.393s-1.5.436-1.5.969m86.609 1.855c-.353.571-.154 1.339.441 1.707 1.486.918 2.012.188 1.021-1.417-.532-.859-1.047-.962-1.462-.29m3.029 5.676c.317.825.753 1.5.969 1.5.216 0 .393-.675.393-1.5s-.436-1.5-.969-1.5c-.532 0-.709.675-.393 1.5m3 5c.317.825.753 1.5.969 1.5.216 0 .393-.675.393-1.5s-.436-1.5-.969-1.5c-.532 0-.709.675-.393 1.5m2.362 3.441c0 .518.45 1.219 1 1.559.55.34 1-.084 1-.941s-.45-1.559-1-1.559-1 .423-1 .941m3 4.441c0 .825.45 1.778 1 2.118.55.34 1-.057 1-.882s-.45-1.778-1-2.118c-.55-.34-1 .057-1 .882m3.015 4.309c.009.445.452 1.484.985 2.309.835 1.293.971 1.266.985-.191.008-.93-.435-1.969-.985-2.309-.55-.34-.993-.254-.985.191m-163.936 4.892c.048 1.165.285 1.402.604.605.289-.722.253-1.585-.079-1.917-.332-.332-.568.258-.525 1.312M401 262.382c0 .825.45 1.778 1 2.118.55.34 1-.057 1-.882s-.45-1.778-1-2.118c-.55-.34-1 .057-1 .882m-318 .536c0 1.862 1.234 4.056 2.011 3.575 1.02-.63.05-4.493-1.128-4.493-.485 0-.883.413-.883.918m321 4.464c0 .825.45 1.778 1 2.118.55.34 1-.057 1-.882s-.45-1.778-1-2.118c-.55-.34-1 .057-1 .882m-318.21.161c-.815.815.268 4.457 1.327 4.457.485 0 .876-.562.868-1.25-.022-1.738-1.501-3.901-2.195-3.207m321.225 4.148c.009.445.452 1.484.985 2.309.835 1.293.971 1.266.985-.191.008-.93-.435-1.969-.985-2.309-.55-.34-.993-.254-.985.191M88 274.882c0 1.1.45 2.278 1 2.618.55.34 1-.282 1-1.382 0-1.1-.45-2.278-1-2.618-.55-.34-1 .282-1 1.382m322 1.5c0 .825.45 1.778 1 2.118.55.34 1-.057 1-.882s-.45-1.778-1-2.118c-.55-.34-1 .057-1 .882m-33.5 2.018c-.55.648-1.145 1.836-1.321 2.639-.258 1.171-.07 1.213.95.211.699-.687 1.968-1.214 2.821-1.171 1.039.053 1.136.246.294.585-.691.279-.957 1.031-.59 1.671.367.641.294.827-.163.413-.456-.414-1.73.036-2.832 1-1.101.964-1.662 1.17-1.245.458.417-.711.235-1.924-.404-2.694-1.599-1.927-6.358.139-5.496 2.386.326.847.272 1.221-.119.83-.391-.391-1.315-.21-2.052.403-1.092.906-1.235.485-.771-2.259.541-3.192.488-3.268-1-1.431-.865 1.068-1.586 2.868-1.604 4-.03 1.98-.086 1.988-1.433.209-1.271-1.678-4.171-1.488-3.125.205.244.394-.391.716-1.41.716s-1.669-.297-1.445-.66c.547-.885-9.288-.512-10.185.386-.387.387-1.605.703-2.708.703-1.102 0-2.838.754-3.857 1.676-1.42 1.286-2.127 1.402-3.029.5-.901-.901-.74-1.176.691-1.176 1.026 0 1.596-.27 1.267-.6-.33-.329-2.259-.052-4.287.617-2.692.889-3.317 1.451-2.317 2.085.754.477.908.874.343.883-.566.008-1.994-.662-3.175-1.489-1.918-1.343-2.315-1.336-3.715.064-.862.862-1.99 1.306-2.506.987-.516-.319-1.221-.122-1.567.437-.345.559-1.078 1.016-1.628 1.016-.55 0-.722-.45-.382-1 .34-.55-.121-1-1.024-1-.904 0-1.463.337-1.244.75.219.413.975 2.212 1.681 4 .705 1.788 1.639 3.25 2.074 3.25.435 0 5.841-2.25 12.013-5 12.248-5.457 14.628-6.046 13.137-3.25-.957 1.794-20.343 69.11-21.61 75.039-.523 2.446-1.13 3.161-2.365 2.786-2.689-.815-60.668-17.132-72.662-20.449-9.98-2.761-11.113-2.894-12.218-1.437-.67.883-.981 1.989-.691 2.458.29.469-.062.86-.782.868-.951.011-.899.281.191.985 1.19.769.983.976-1 1-1.938.024-2.169.24-1.026.963 1.249.79 1.133 1.294-.759 3.309-1.228 1.307-1.929 2.68-1.557 3.052.371.372-.245.676-1.369.676-1.661 0-1.996.562-1.789 3 .14 1.65-.166 3-.681 3-.516 0-.616.52-.224 1.155.443.715.275.883-.44.44-1.946-1.202-3.281.301-2.148 2.418.794 1.485.539 2.332-1.186 3.939-1.209 1.126-2.987 2.048-3.951 2.048-.963 0-2.004.408-2.312.907-.309.498.452.667 1.691.375 2.224-.526 2.227-.512.251 1.095l-2 1.628 2-.578 2-.578-2 1.223c-1.1.673-2.149 1.343-2.331 1.49-.182.147.202 1.262.853 2.48 1.811 3.383-.803 4.476-3.976 1.662-1.367-1.212-1.915-1.457-1.217-.543.857 1.122.928 1.871.22 2.309-.577.356-1.049 1.386-1.049 2.289 0 1.276.267 1.374 1.2.441 1.774-1.774 3.259-1.459 1.742.37-.758.914-2.167 1.352-3.372 1.049-2.027-.509-2.029-.489-.129.931 1.068.797 1.379 1.45.691 1.45-.69 0-.931.517-.537 1.155.406.655.278.885-.295.53-.555-.343-2.053.488-3.329 1.846-1.276 1.358-2.006 2.469-1.622 2.469.383 0-.013 1.083-.88 2.407-1.047 1.598-1.223 2.627-.523 3.059 1.014.627 1.449-.053 1.148-1.79-.079-.454.29-.557.82-.229.53.327 1.407-.198 1.95-1.168.542-.969 1.247-1.501 1.566-1.182 1.175 1.175-4.019 5.998-5.746 5.335-1.148-.44-1.684-.135-1.684.961 0 .884-.562 1.623-1.25 1.642-.687.02-.125.679 1.25 1.465s1.911 1.445 1.191 1.465c-.72.019-1.045.461-.723.983.322.521-.327.772-1.441.557-1.28-.246-2.027.142-2.027 1.052 0 1.25-1.06 1.815-3.05 1.628-.303-.028-.55 1.013-.55 2.315s.473 2.284 1.05 2.183c.578-.1 1.275 1.737 1.55 4.083.618 5.272 4.584 10.451 10.295 13.441 5.198 2.723 17.184 2.975 26.019.547 5.66-1.555 39.31-18.901 109.686-56.54 72.373-38.707 75.951-40.78 79.062-45.815 2.617-4.234 2.921-6.067 1.642-9.899-1.587-4.757-21.311-32.435-28.662-40.222-1.673-1.771-3.042-3.684-3.042-4.25 0-.565-.337-.957-.75-.869-.886.187-3.998-.899-6.605-2.306-1.02-.55-1.602-.592-1.294-.093.666 1.076-5.623 1.274-6.351.199-.275-.406-.95-.207-1.5.441m-286.107 2.182c.334.87.607 1.796.607 2.059 0 .262.43.211.956-.114 1.161-.718.229-3.527-1.17-3.527-.55 0-.727.712-.393 1.582m293.654.862c-.978 1.178-.837 1.416.768 1.295 1.164-.088 1.763-.676 1.468-1.444-.625-1.627-.77-1.618-2.236.149m28.953-.062c0 .825.45 1.778 1 2.118.55.34 1-.057 1-.882s-.45-1.778-1-2.118c-.55-.34-1 .057-1 .882m-57.397 1.451c-.283.459.12.834.897.834s1.18-.375.897-.834c-.283-.458-.687-.833-.897-.833-.21 0-.614.375-.897.833m-262.899 1.836c-.716 1.159.953 4.007 1.833 3.127.356-.355.217-1.413-.307-2.349-.524-.937-1.211-1.287-1.526-.778M270 285c-.825.533-1.05.969-.5.969s1.675-.436 2.5-.969c.825-.533 1.05-.969.5-.969s-1.675.436-2.5.969m146.015.691c.009.445.452 1.484.985 2.309.835 1.293.971 1.266.985-.191.008-.93-.435-1.969-.985-2.309-.55-.34-.993-.254-.985.191m2.985 4.691c0 .825.45 1.778 1 2.118.55.34 1-.057 1-.882s-.45-1.778-1-2.118c-.55-.34-1 .057-1 .882m-324 1.059c0 .793.45 1.719 1 2.059.55.34 1-.309 1-1.441 0-1.132-.45-2.059-1-2.059s-1 .648-1 1.441m327 3.941c0 .825.45 1.778 1 2.118.55.34 1-.057 1-.882s-.45-1.778-1-2.118c-.55-.34-1 .057-1 .882m-324.382.426c-.399.647-.314 1.913.189 2.812 1.18 2.108 2.161.482 1.24-2.054-.477-1.314-.935-1.557-1.429-.758M277 299c-.825.533-1.05.969-.5.969s1.675-.436 2.5-.969c.825-.533 1.05-.969.5-.969s-1.675.436-2.5.969m148.015.691c.009.445.452 1.484.985 2.309.835 1.293.971 1.266.985-.191.008-.93-.435-1.969-.985-2.309-.55-.34-.993-.254-.985.191M100 302.882c0 1.1.45 2.278 1 2.618.55.34 1-.282 1-1.382 0-1.1-.45-2.278-1-2.618-.55-.34-1 .282-1 1.382m328.015 1.868c.028 1.369 1.867 3.702 2.454 3.114.788-.788-.467-3.864-1.576-3.864-.491 0-.886.337-.878.75m-325.265 2.893c-.275.471-.185 1.724.2 2.784.572 1.574.807 1.649 1.283.409.645-1.681-.689-4.553-1.483-3.193m328.336 1.857c.104 1.894 1.77 5.084 1.828 3.5.031-.825-.381-2.175-.914-3-.533-.825-.945-1.05-.914-.5m-282.579 2.489c-.35.566.051.734.941.393 1.732-.665 2.049-1.382.611-1.382-.518 0-1.216.445-1.552.989M105 314.941c0 1.132.45 2.059 1 2.059s1-.648 1-1.441-.45-1.719-1-2.059c-.55-.34-1 .309-1 1.441m328.079 2.642c.048 1.165.285 1.402.604.605.289-.722.253-1.585-.079-1.917-.332-.332-.568.258-.525 1.312m-325.686 2.999c.334.87.607 1.796.607 2.059 0 .262.43.211.956-.114 1.161-.718.229-3.527-1.17-3.527-.55 0-.727.712-.393 1.582M251 320.5c0 .825-.488 1.5-1.083 1.5-.596 0-.91.522-.697 1.161.213.638-.664 2.294-1.949 3.68-1.284 1.386-2.22 3.227-2.078 4.09.141.863-.095 2.13-.525 2.816-.602.959-.199 1.025 1.741.288 3.361-1.278 10.591-4.984 10.591-5.429 0-.698-5.18-9.606-5.585-9.606-.228 0-.415.675-.415 1.5m-140.985 5.25c-.008 1.238.435 2.25.985 2.25 1.253 0 1.253-1.061 0-3-.784-1.213-.972-1.069-.985.75m2.378 6.832c.334.87.607 1.796.607 2.059 0 .262.43.211.956-.114 1.161-.718.229-3.527-1.17-3.527-.55 0-.727.712-.393 1.582m2.622 5.168c-.008 1.238.435 2.25.985 2.25 1.253 0 1.253-1.061 0-3-.784-1.213-.972-1.069-.985.75m2.603 5.058c-.399.647-.314 1.913.189 2.812 1.18 2.108 2.161.482 1.24-2.054-.477-1.314-.935-1.557-1.429-.758m2.382 7.133c0 1.132.45 2.059 1 2.059s1-.648 1-1.441-.45-1.719-1-2.059c-.55-.34-1 .309-1 1.441m110 4.118c0 .582.45.781 1 .441s1-.816 1-1.059-.45-.441-1-.441-1 .477-1 1.059m-107.236.563c-.831 1.422.766 4.947 1.618 3.57.399-.647.314-1.913-.189-2.812-.504-.9-1.147-1.242-1.429-.758m332.699 6.231c-5.648 3.562-32.57 18.958-44.463 25.427a3240.417 3240.417 0 00-12 6.569c-3.575 1.968-8.525 4.613-11 5.88-2.475 1.266-5.479 3.002-6.675 3.859-2.05 1.467-2.144 1.437-1.634-.516.67-2.561-1.332-2.777-2.141-.23-.321 1.013-1.758 2.925-3.191 4.25l-2.607 2.408.75-2.5c.413-1.375 1.369-3.715 2.125-5.2.755-1.486 1.35-3.736 1.322-5-.033-1.501-1.578.696-4.446 6.323-2.418 4.742-5.095 8.89-5.95 9.218-.854.328-1.553.419-1.553.202 0-.217 1.788-4.091 3.972-8.609 2.185-4.518 3.707-8.644 3.383-9.169-.825-1.334-3.677 3.293-7.971 12.931-3.196 7.172-4.181 8.477-7.772 10.291-2.262 1.143-5.912 3.166-8.112 4.497s-5.125 2.982-6.5 3.669c-1.375.687-3.625 1.989-5 2.892-1.375.904-5.65 3.355-9.5 5.448-3.85 2.093-8.913 4.863-11.25 6.156a3376.156 3376.156 0 01-17.878 9.814C276.984 460.569 258 471.562 258 472.264c0 .471 3.038-.813 6.75-2.853 3.713-2.04 9.675-5.288 13.25-7.217 3.575-1.93 15.671-8.613 26.881-14.851C316.09 441.104 325.447 436 325.675 436c.38 0 18.965-10.225 25.854-14.225 1.634-.948 4.771-2.63 6.971-3.737 2.2-1.107 4.788-2.468 5.75-3.025l3.5-2.026c.963-.557 3.55-1.913 5.75-3.014 2.2-1.101 5.671-3.008 7.713-4.237 8.441-5.082 15.407-9.229 17.287-10.292 2.265-1.28 7.925-4.532 12.75-7.325A7275.458 7275.458 0 01432 376.266c14.692-8.37 28.213-16.466 29.917-17.912.229-.195.212-.558-.037-.808-.25-.249-3.137 1.239-6.417 3.307M125 362.441c0 .793.45 1.719 1 2.059.55.34 1-.309 1-1.441 0-1.132-.45-2.059-1-2.059s-1 .648-1 1.441m3.015 5.809c-.008 1.512.435 2.75.985 2.75 1.264 0 1.264-2.043 0-4-.755-1.169-.973-.893-.985 1.25m92.654 2.33c.494 1.286.321 1.532-.654.93-.862-.534-1.085-.432-.637.292.842 1.364 3.845.367 3.352-1.113-.195-.585-.89-1.242-1.543-1.46-.767-.256-.95.224-.518 1.351m-89.978 3.111c-.307.497-.195 1.494.25 2.214.445.719 1.061.901 1.368.404.307-.497.195-1.494-.25-2.214-.445-.719-1.061-.901-1.368-.404m2.324 6.5c.009.72.452 1.984.985 2.809.788 1.219.972 1.09.985-.691.008-1.205-.435-2.469-.985-2.809-.55-.34-.993-.029-.985.691m220.762.553c-3.394 3.86-8.161 14.9-6.798 15.743.496.307 2.803-3.278 5.126-7.967 4.129-8.333 4.766-11.295 1.672-7.776m3.138 4.327c-5.486 10.176-8.147 16.488-7.767 18.424.207 1.052 2.769-3.19 6.209-10.28 6.221-12.819 7.399-18.979 1.558-8.144M214.15 383.95c.43 1.289 1.801 1.521 1.925.325.041-.399-.465-.905-1.125-1.125-.66-.22-1.02.14-.8.8m132.093.3c-2.352 2.937-5.166 9.68-4.269 10.234.527.326 2.33-2.125 4.007-5.446 2.736-5.42 2.881-8.056.262-4.788m-210.539 1.419c-.716 1.159.953 4.007 1.833 3.127.356-.355.217-1.413-.307-2.349-.524-.937-1.211-1.287-1.526-.778m225.988 2.118c-2.577 2.849-9.867 19.109-9.414 21.001.244 1.021 2.74-3.054 6.18-10.09 5.633-11.521 6.532-14.554 3.234-10.911m-23.231 1.256c-1.519 1.678-1.56 1.932-.232 1.423.889-.341 1.862-1.261 2.162-2.043.747-1.947.248-1.787-1.93.62m25.14 5.581c-4.233 8.447-8.601 18.109-8.601 19.027 0 3.783 10.731-15.851 13.064-23.901 1.473-5.087-.613-2.808-4.463 4.874m-225.208-1.042c.334.87.607 1.796.607 2.059 0 .262.43.211.956-.114 1.161-.718.229-3.527-1.17-3.527-.55 0-.727.712-.393 1.582m73.42 3.101c.721.289 1.584.253 1.916-.079.332-.332-.258-.568-1.312-.525-1.165.048-1.402.285-.604.604M207 398c-.901.582-1.025.975-.309.985.655.008 1.469-.435 1.809-.985.767-1.242.421-1.242-1.5 0m-65.985 1.191c.009.72.452 1.984.985 2.809.788 1.219.972 1.09.985-.691.008-1.205-.435-2.469-.985-2.809-.55-.34-.993-.029-.985.691m3 6.5c-.008 1.205.435 2.469.985 2.809 1.273.787 1.273-1.53 0-3.5-.788-1.219-.972-1.09-.985.691m54.064 3.559c-.043.962-.529 1.75-1.079 1.75-.55 0-1 .546-1 1.214 0 .787.569.645 1.616-.401.889-.889 1.374-2.223 1.079-2.965-.368-.923-.562-.796-.616.402m-51.009 3c-.038 1.512.38 2.75.93 2.75 1.174 0 1.174-.769 0-3.5-.762-1.772-.867-1.687-.93.75m2.514 5.614c-.381.616-.28 1.857.223 2.756.621 1.109 1.14 1.276 1.609.516.381-.616.28-1.857-.223-2.756-.621-1.109-1.14-1.276-1.609-.516m2.416 7.054c0 1.862 1.234 4.056 2.011 3.575 1.02-.63.05-4.493-1.128-4.493-.485 0-.883.413-.883.918m3 6.964c0 1.1.45 2.278 1 2.618.55.34 1-.282 1-1.382 0-1.1-.45-2.278-1-2.618-.55-.34-1 .282-1 1.382m3.015 6.309c.009.72.452 1.984.985 2.809.788 1.219.972 1.09.985-.691.008-1.205-.435-2.469-.985-2.809-.55-.34-.993-.029-.985.691m3 6.5c-.008 1.205.435 2.469.985 2.809 1.273.787 1.273-1.53 0-3.5-.788-1.219-.972-1.09-.985.691m3 7c-.008 1.205.435 2.469.985 2.809 1.273.787 1.273-1.53 0-3.5-.788-1.219-.972-1.09-.985.691m3 7c-.008 1.205.435 2.469.985 2.809 1.273.787 1.273-1.53 0-3.5-.788-1.219-.972-1.09-.985.691m3 6.5c-.008 1.48.435 2.969.985 3.309 1.277.789 1.277-2.524 0-4.5-.758-1.173-.973-.914-.985 1.191m3.017 6.5c-.034 2.339 1.475 3.915 2.367 2.473.295-.478-.109-1.723-.899-2.767-1.389-1.835-1.437-1.825-1.468.294m80.105 2.367c-1.849 1.127-3.129 2.284-2.843 2.57.75.75 6.706-2.495 6.706-3.654 0-1.281.029-1.289-3.863 1.084m-76.435 2.573c-.347.348-.149 1.534.441 2.636.812 1.518 1.266 1.69 1.872.709 1.401-2.267-.558-5.1-2.313-3.345m68.048 1.941c-3.749 2.034-3.51 3.873.25 1.928 1.65-.853 3-1.99 3-2.526 0-1.199.094-1.216-3.25.598m-64.084 2.855c-.702 1.831 1.856 4.155 2.834 2.574.824-1.334-.084-4.001-1.362-4.001-.508 0-1.17.642-1.472 1.427m55.642 1.767c-1.205.583-2.43 1.683-2.723 2.445-.43 1.121.035 1.092 2.442-.153 1.635-.845 2.973-1.976 2.973-2.512 0-1.133.131-1.143-2.692.22M185 485.441c0 .793.399 1.688.887 1.989 1.101.681 3.342-1.868 2.438-2.772-1.19-1.19-3.325-.687-3.325.783m4.644 2.044c-.329.857.213 1.903 1.283 2.476 1.469.786 1.956.595 2.352-.92.295-1.129-.102-2.143-.971-2.476-2.003-.769-2.018-.764-2.664.92m37.606.546c-1.238.498-2.25 1.369-2.25 1.937 0 1.582 1.534 1.235 4.139-.935 2.515-2.095 1.789-2.48-1.889-1.002m-32.667 1.612c-.849 2.213-.497 2.423 4.442 2.656 2.663.126 4.425-.267 4.701-1.049.261-.741-.408-1.25-1.643-1.25-1.145 0-2.083.45-2.083 1s-.498 1-1.107 1-.862-.638-.563-1.417c.299-.78-.14-1.68-.975-2-2.069-.794-2.058-.798-2.772 1.06m24.86.775c-2.29 1.674-1.101 3.487 1.295 1.975 1.873-1.181 2.874-3.393 1.536-3.393-.49 0-1.765.638-2.831 1.418M205.232 492c-1.119 1.792-.999 2 1.153 2 2.764 0 4.234-2.549 1.97-3.417-.835-.321-1.599-.583-1.696-.583-.098 0-.74.9-1.427 2m7.292-.381c-.891.891-1.407 1.832-1.147 2.091.853.853 4.426-.754 4.999-2.248.761-1.982-1.819-1.876-3.852.157" fill="undefined" fill-rule="evenodd"/></svg>